<svg width="683" height="270" viewBox="0 0 683 270" fill="none" xmlns="http://www.w3.org/2000/svg">
<path d="M76.5942 211.2L53.0551 266.37C52.4263 267.843 50.9788 268.8 49.3764 268.8H4.00432C1.11617 268.8 -0.819991 265.833 0.343192 263.189L13.8276 232.542L81.8998 198.585L76.5942 211.2Z" fill="white"/>
<path d="M205.85 0C208.056 0 209.846 1.78612 209.85 3.99219L210.363 264.792C210.367 267.004 208.575 268.8 206.363 268.8H164.049C161.847 268.8 160.059 267.02 160.049 264.817L159.61 163.374V159.822L206.576 136.395C207.52 135.924 207.185 134.5 206.129 134.5H159.61V27.7007C159.61 26.3992 158.555 25.3442 157.254 25.3442C156.31 25.3443 155.458 25.9068 155.087 26.7744L109.048 134.5H56.9662L115.095 2.38916C115.734 0.937389 117.17 6.95839e-05 118.756 0H205.85Z" fill="white"/>
<path d="M408.267 84.2473C408.267 73.9011 404.212 64.9098 396.102 57.2734C388.238 49.6369 377.057 45.8187 362.557 45.8187C350.27 45.8187 340.563 48.4052 333.436 53.5783C326.31 58.505 322.746 65.2793 322.746 73.9011C322.746 78.3352 323.606 82.3997 325.327 86.0948C327.047 89.5435 329.996 92.7459 334.173 95.7019C338.597 98.4116 344.249 100.875 351.13 103.092C358.257 105.309 367.227 107.403 378.04 109.374C405.072 114.3 425.715 122.553 439.968 134.13C454.221 145.708 461.348 162.829 461.348 185.492V189.926C461.348 201.996 459.136 212.958 454.713 222.812C450.535 232.419 444.392 240.671 436.282 247.569C428.172 254.466 418.342 259.762 406.792 263.457C395.242 267.152 382.217 269 367.718 269C350.761 269 335.771 266.66 322.746 261.979C309.967 257.053 299.277 250.402 290.676 242.026C282.075 233.404 275.563 223.428 271.139 212.096C266.716 200.518 264.504 187.955 264.504 174.407V163.321H313.162V172.19C313.162 187.709 317.585 200.149 326.432 209.51C335.525 218.624 349.533 223.181 368.455 223.181C383.2 223.181 394.136 219.979 401.263 213.574C408.389 207.169 411.953 199.533 411.953 190.665C411.953 186.477 411.216 182.536 409.741 178.841C408.267 174.899 405.686 171.451 402 168.495C398.314 165.292 393.276 162.459 386.886 159.996C380.497 157.533 372.387 155.439 362.557 153.714C349.533 151.497 337.614 148.664 326.801 145.216C315.988 141.521 306.527 136.717 298.417 130.805C290.553 124.893 284.41 117.503 279.986 108.635C275.563 99.7665 273.351 88.9277 273.351 76.1181V73.9011C273.351 63.3086 275.44 53.5783 279.617 44.7102C284.041 35.5957 290.062 27.7129 297.68 21.0618C305.544 14.4107 314.882 9.23764 325.695 5.54258C336.754 1.84753 349.041 0 362.557 0C377.794 0 391.31 2.21703 403.106 6.6511C414.902 10.8388 424.732 16.6278 432.596 24.0179C440.705 31.408 446.726 39.9066 450.658 49.5137C454.836 59.1209 456.925 69.2207 456.925 79.8132V93.1154H408.267V84.2473Z" fill="white"/>
<path d="M496.848 5.17308H682.634V51.7308H614.07V263.827H565.412V51.7308H496.848V5.17308Z" fill="white"/>
</svg>
