<svg width="683" height="382" viewBox="0 0 683 382" fill="none" xmlns="http://www.w3.org/2000/svg">
<path d="M76.5942 211.2L53.0551 266.37C52.4263 267.843 50.9788 268.8 49.3764 268.8H4.00432C1.11617 268.8 -0.819991 265.833 0.343192 263.189L13.8276 232.542L81.8998 198.585L76.5942 211.2Z" fill="white"/>
<path d="M205.85 0C208.056 0 209.846 1.78612 209.85 3.99219L210.363 264.792C210.367 267.004 208.575 268.8 206.363 268.8H164.049C161.847 268.8 160.059 267.02 160.049 264.817L159.61 163.374V159.822L206.576 136.395C207.52 135.924 207.185 134.5 206.129 134.5H159.61V27.7007C159.61 26.3992 158.555 25.3442 157.254 25.3442C156.31 25.3443 155.458 25.9068 155.087 26.7744L109.048 134.5H56.9662L115.095 2.38916C115.734 0.937389 117.17 6.95839e-05 118.756 0H205.85Z" fill="white"/>
<path d="M408.267 84.2473C408.267 73.9011 404.212 64.9098 396.102 57.2734C388.238 49.6369 377.057 45.8187 362.557 45.8187C350.27 45.8187 340.563 48.4052 333.436 53.5783C326.31 58.505 322.746 65.2793 322.746 73.9011C322.746 78.3352 323.606 82.3997 325.327 86.0948C327.047 89.5435 329.996 92.7459 334.173 95.7019C338.597 98.4116 344.249 100.875 351.13 103.092C358.257 105.309 367.227 107.403 378.04 109.374C405.072 114.3 425.715 122.553 439.968 134.13C454.221 145.708 461.348 162.829 461.348 185.492V189.926C461.348 201.996 459.136 212.958 454.713 222.812C450.535 232.419 444.392 240.671 436.282 247.569C428.172 254.466 418.342 259.762 406.792 263.457C395.242 267.152 382.217 269 367.718 269C350.761 269 335.771 266.66 322.746 261.979C309.967 257.053 299.277 250.402 290.676 242.026C282.075 233.404 275.563 223.428 271.139 212.096C266.716 200.518 264.504 187.955 264.504 174.407V163.321H313.162V172.19C313.162 187.709 317.585 200.149 326.432 209.51C335.525 218.624 349.533 223.181 368.455 223.181C383.2 223.181 394.136 219.979 401.263 213.574C408.389 207.169 411.953 199.533 411.953 190.665C411.953 186.477 411.216 182.536 409.741 178.841C408.267 174.899 405.686 171.451 402 168.495C398.314 165.292 393.276 162.459 386.886 159.996C380.497 157.533 372.387 155.439 362.557 153.714C349.533 151.497 337.614 148.664 326.801 145.216C315.988 141.521 306.527 136.717 298.417 130.805C290.553 124.893 284.41 117.503 279.986 108.635C275.563 99.7665 273.351 88.9277 273.351 76.1181V73.9011C273.351 63.3086 275.44 53.5783 279.617 44.7102C284.041 35.5957 290.062 27.7129 297.68 21.0618C305.544 14.4107 314.882 9.23764 325.695 5.54258C336.754 1.84753 349.041 0 362.557 0C377.794 0 391.31 2.21703 403.106 6.6511C414.902 10.8388 424.732 16.6278 432.596 24.0179C440.705 31.408 446.726 39.9066 450.658 49.5137C454.836 59.1209 456.925 69.2207 456.925 79.8132V93.1154H408.267V84.2473Z" fill="white"/>
<path d="M496.848 5.17308H682.634V51.7308H614.07V263.827H565.412V51.7308H496.848V5.17308Z" fill="white"/>
<path d="M27.476 370.298H11.5265L9.24801 380.284H0L11.1914 333.682H27.811L39.0025 380.284H29.7545L27.476 370.298ZM13.4029 361.909H25.5326L20.1044 338.076H18.8981L13.4029 361.909Z" fill="white"/>
<path d="M45.5233 333.682H54.3692V371.895H75.6799V380.284H45.5233V333.682Z" fill="white"/>
<path d="M150.643 347.929C150.643 346.065 149.906 344.445 148.432 343.069C147.002 341.693 144.969 341.005 142.333 341.005C140.099 341.005 138.335 341.471 137.039 342.403C135.743 343.291 135.096 344.511 135.096 346.065C135.096 346.864 135.252 347.596 135.565 348.262C135.877 348.883 136.414 349.46 137.173 349.993C137.977 350.481 139.005 350.925 140.256 351.324C141.551 351.723 143.182 352.101 145.148 352.456C150.062 353.343 153.815 354.83 156.406 356.916C158.997 359.002 160.293 362.087 160.293 366.17V366.969C160.293 369.144 159.891 371.119 159.087 372.894C158.327 374.625 157.21 376.112 155.736 377.354C154.262 378.597 152.475 379.551 150.375 380.217C148.275 380.883 145.907 381.216 143.271 381.216C140.189 381.216 137.463 380.794 135.096 379.951C132.772 379.063 130.829 377.865 129.265 376.356C127.702 374.802 126.518 373.005 125.714 370.963C124.909 368.877 124.507 366.614 124.507 364.173V362.176H133.353V363.773C133.353 366.569 134.157 368.811 135.766 370.497C137.419 372.139 139.965 372.96 143.405 372.96C146.086 372.96 148.074 372.383 149.37 371.23C150.665 370.076 151.313 368.7 151.313 367.102C151.313 366.347 151.179 365.637 150.911 364.972C150.643 364.262 150.174 363.64 149.504 363.108C148.834 362.531 147.918 362.02 146.756 361.576C145.595 361.133 144.12 360.755 142.333 360.445C139.965 360.045 137.799 359.535 135.833 358.913C133.867 358.248 132.147 357.382 130.673 356.317C129.243 355.252 128.126 353.92 127.322 352.323C126.518 350.725 126.116 348.772 126.116 346.464V346.065C126.116 344.156 126.495 342.403 127.255 340.805C128.059 339.163 129.154 337.743 130.539 336.545C131.968 335.346 133.666 334.414 135.632 333.749C137.642 333.083 139.876 332.75 142.333 332.75C145.103 332.75 147.56 333.149 149.705 333.948C151.849 334.703 153.636 335.746 155.066 337.077C156.54 338.409 157.635 339.94 158.35 341.671C159.109 343.402 159.489 345.221 159.489 347.13V349.527H150.643V347.929Z" fill="white"/>
<path d="M191.609 370.298H175.66L173.381 380.284H164.133L175.325 333.682H191.944L203.136 380.284H193.888L191.609 370.298ZM177.536 361.909H189.666L184.238 338.076H183.031L177.536 361.909Z" fill="white"/>
<path d="M232.643 370.298H216.693L214.415 380.284H205.167L216.358 333.682H232.978L244.169 380.284H234.921L232.643 370.298ZM218.57 361.909H230.699L225.271 338.076H224.065L218.57 361.909Z" fill="white"/>
<path d="M248.277 333.682H265.299C271.107 333.682 275.418 335.036 278.233 337.743C281.048 340.406 282.455 344.556 282.455 350.192V363.773C282.455 369.41 281.048 373.582 278.233 376.289C275.418 378.952 271.107 380.284 265.299 380.284H248.277V371.829H252.7V342.07H248.277V333.682ZM265.299 371.895C268.382 371.895 270.526 371.185 271.733 369.765C272.983 368.3 273.609 366.037 273.609 362.974V350.192C273.609 347.529 272.983 345.51 271.733 344.134C270.526 342.758 268.382 342.07 265.299 342.07H261.546V371.895H265.299Z" fill="white"/>
<path d="M330.88 333.682H364.656V342.07H352.191V380.284H343.345V342.07H330.88V333.682Z" fill="white"/>
<path d="M373.79 333.682H403.41V342.07H382.636V352.722H402.606V361.11H382.636V371.895H404.215V380.284H373.79V333.682Z" fill="white"/>
<path d="M414.823 333.682H423.669V371.895H444.98V380.284H414.823V333.682Z" fill="white"/>
<path d="M455.857 333.682H485.477V342.07H464.703V352.722H484.673V361.11H464.703V371.895H486.281V380.284H455.857V333.682Z" fill="white"/>
<path d="M512.035 373.227C513.733 373.227 515.118 372.983 516.19 372.494C517.307 371.962 518.156 371.274 518.737 370.431C519.362 369.543 519.787 368.544 520.01 367.435C520.233 366.281 520.345 365.105 520.345 363.906V362.708H529.191V363.906C529.191 369.454 527.717 373.737 524.768 376.755C521.864 379.729 517.62 381.216 512.035 381.216C506.674 381.216 502.43 379.596 499.302 376.356C496.175 373.116 494.611 368.389 494.611 362.176V351.79C494.611 348.816 495.014 346.153 495.818 343.801C496.622 341.405 497.783 339.407 499.302 337.81C500.821 336.167 502.653 334.925 504.798 334.081C506.942 333.194 509.355 332.75 512.035 332.75C514.805 332.75 517.262 333.149 519.407 333.948C521.551 334.747 523.338 335.901 524.768 337.41C526.242 338.919 527.337 340.739 528.052 342.869C528.811 345 529.191 347.396 529.191 350.059V351.257H520.345V350.059C520.345 348.95 520.211 347.84 519.943 346.73C519.675 345.621 519.228 344.622 518.603 343.735C517.977 342.847 517.128 342.137 516.056 341.604C514.984 341.027 513.644 340.739 512.035 340.739C510.561 340.739 509.288 341.027 508.215 341.604C507.143 342.137 506.25 342.891 505.535 343.868C504.82 344.8 504.284 345.909 503.926 347.196C503.614 348.439 503.457 349.748 503.457 351.124V362.841C503.457 364.35 503.614 365.748 503.926 367.035C504.239 368.278 504.731 369.365 505.401 370.298C506.071 371.23 506.942 371.962 508.014 372.494C509.131 372.983 510.472 373.227 512.035 373.227Z" fill="white"/>
<path d="M535.645 351.79C535.645 345.754 537.164 341.072 540.202 337.743C543.284 334.414 547.529 332.75 552.935 332.75C558.34 332.75 562.562 334.414 565.6 337.743C568.683 341.072 570.224 345.754 570.224 351.79V362.176C570.224 368.389 568.683 373.116 565.6 376.356C562.562 379.596 558.34 381.216 552.935 381.216C547.529 381.216 543.284 379.596 540.202 376.356C537.164 373.116 535.645 368.389 535.645 362.176V351.79ZM552.935 373.227C554.543 373.227 555.883 372.983 556.955 372.494C558.028 371.962 558.899 371.23 559.569 370.298C560.239 369.365 560.708 368.256 560.976 366.969C561.244 365.682 561.378 364.262 561.378 362.708V351.257C561.378 349.793 561.222 348.417 560.909 347.13C560.597 345.843 560.105 344.733 559.435 343.801C558.765 342.869 557.894 342.137 556.821 341.604C555.749 341.027 554.454 340.739 552.935 340.739C551.416 340.739 550.12 341.027 549.048 341.604C547.975 342.137 547.104 342.869 546.434 343.801C545.764 344.733 545.273 345.843 544.96 347.13C544.647 348.417 544.491 349.793 544.491 351.257V362.708C544.491 364.262 544.625 365.682 544.893 366.969C545.161 368.256 545.63 369.365 546.3 370.298C546.97 371.23 547.841 371.962 548.914 372.494C549.986 372.983 551.326 373.227 552.935 373.227Z" fill="white"/>
<path d="M574.936 333.682H590.483L593.164 368.7V375.49H594.772V368.7L597.453 333.682H613V380.284H604.958V349.127L605.762 338.475H604.154L600.669 380.284H587.4L583.782 338.475H582.173L582.977 349.127V380.284H574.936V333.682Z" fill="white"/>
</svg>
