<svg width="421" height="538" viewBox="0 0 421 538" fill="none" xmlns="http://www.w3.org/2000/svg">
<path d="M153.188 422.4L106.11 532.739C104.853 535.687 101.958 537.599 98.7528 537.6H8.00865C2.23234 537.599 -1.63998 531.665 0.686383 526.378L27.6551 465.083L163.8 397.171L153.188 422.4Z" fill="#F0F0F0"/>
<path d="M411.7 0C416.112 0 419.691 3.57224 419.7 7.98438L420.725 529.584C420.734 534.008 417.15 537.599 412.725 537.6H328.098C323.694 537.6 320.118 534.039 320.098 529.635L319.221 326.747V319.645L413.151 272.79C415.041 271.848 414.37 269 412.259 269H319.221V55.4014C319.221 52.7985 317.111 50.6885 314.508 50.6885C312.621 50.6885 310.915 51.8137 310.174 53.5488L218.096 269H113.932L230.19 4.77832C231.468 1.87478 234.34 0.000139168 237.513 0H411.7Z" fill="#F0F0F0"/>
</svg>
